<svg width="104" height="59" viewBox="0 0 104 59" fill="none" xmlns="http://www.w3.org/2000/svg">
<g filter="url(#filter0_f_1_2)">
<path d="M18.2329 32.7942C17.0848 32.7942 15.7894 32.5293 14.3469 31.9993C12.9043 31.4841 11.9696 30.991 11.5427 30.52L12.9338 27.495C13.3018 27.7747 13.8979 28.0323 14.7222 28.2678C15.5465 28.5034 16.2531 28.6211 16.8419 28.6211C17.4307 28.6211 17.9385 28.5402 18.3654 28.3782C18.807 28.231 19.1456 28.0397 19.3811 27.8042C19.6166 27.5834 19.808 27.3037 19.9552 26.9651C20.1024 26.6413 20.1907 26.3469 20.2201 26.0819C20.2643 25.817 20.2937 25.5226 20.3085 25.1987V23.3219C19.0573 24.6173 17.5337 25.265 15.7379 25.265C13.3091 25.265 11.528 24.4333 10.3946 22.7699C9.26112 21.1066 8.6944 18.7955 8.6944 15.8368C8.6944 14.4531 8.84896 13.1799 9.15808 12.017C9.4672 10.8394 9.91616 9.80899 10.505 8.92579C11.1085 8.02787 11.8886 7.32867 12.8454 6.82819C13.8022 6.31299 14.8841 6.05539 16.0912 6.05539C17.9165 6.05539 19.4989 6.46019 20.8384 7.26979L21.2137 6.23203H24.592L28.743 6.43075V8.50627L27.4182 9.43363V24.183C27.4182 29.9238 24.3565 32.7942 18.2329 32.7942ZM18.9395 21.2464C19.3811 21.2464 19.8374 21.1213 20.3085 20.871V9.23491C19.9552 9.16131 19.6313 9.12451 19.3369 9.12451C17.3792 9.13923 16.3929 10.648 16.3782 13.6509V17.0733C16.3782 18.0154 16.5033 18.825 16.7536 19.5021C17.1952 20.665 17.9238 21.2464 18.9395 21.2464ZM40.0354 23.0349L39.8146 23.2778C39.6674 23.4544 39.4392 23.6605 39.1301 23.896C38.8357 24.1315 38.4898 24.367 38.0923 24.6026C37.7096 24.8381 37.2386 25.0368 36.6792 25.1987C36.1198 25.3754 35.5458 25.4637 34.957 25.4637C30.9826 25.4637 28.9954 23.4986 28.9954 19.5683C28.9954 18.8029 29.1352 18.1037 29.4149 17.4707C29.6946 16.8231 30.0552 16.2784 30.4968 15.8368C30.9384 15.3952 31.4683 15.0051 32.0866 14.6666C32.7048 14.3133 33.323 14.041 33.9413 13.8496C34.5742 13.6435 35.2366 13.4743 35.9285 13.3418C36.6203 13.2093 37.2386 13.121 37.7832 13.0768C38.3278 13.0327 38.8504 13.0106 39.3509 13.0106V12.6131C39.3509 11.7152 39.108 11.0823 38.6222 10.7143C38.1512 10.3463 37.3858 10.1623 36.3259 10.1623C35.4133 10.1623 34.4638 10.2727 33.4776 10.4935C32.4914 10.6995 31.7186 10.9498 31.1592 11.2442L29.7461 8.24131C30.747 7.59363 32.0498 7.02691 33.6542 6.54115C35.2587 6.04067 36.8926 5.79043 38.556 5.79043C40.028 5.79043 41.2424 5.93763 42.1992 6.23203C43.156 6.51171 43.9288 6.99747 44.5176 7.68931C45.1211 8.36643 45.548 9.23491 45.7982 10.2947C46.0485 11.3399 46.1736 12.672 46.1736 14.2912V23.2778L46.7918 25H40.7419L40.0354 23.0349ZM38.291 21.5776C38.4824 21.5776 38.659 21.5408 38.821 21.4672C38.9976 21.3789 39.1301 21.2979 39.2184 21.2243C39.3067 21.136 39.3509 21.0918 39.3509 21.0918V15.7927C38.453 15.7927 37.739 16.0429 37.2091 16.5434C36.6792 17.0291 36.4142 17.7872 36.4142 18.8176C36.4142 20.6576 37.0398 21.5776 38.291 21.5776ZM56.1292 25H48.9974V10.7143L47.6726 9.89731V7.53475L52.4198 6.23203H56.1734V9.08035C56.247 8.97731 56.35 8.84483 56.4825 8.68291C56.6297 8.50627 56.8947 8.23395 57.2774 7.86595C57.6601 7.49795 58.0502 7.17411 58.4476 6.89443C58.8598 6.61475 59.3529 6.36451 59.927 6.14371C60.5158 5.90819 61.0972 5.79043 61.6713 5.79043C63.1433 5.79043 64.2694 6.07011 65.0495 6.62947C65.8297 7.18883 66.3817 8.10147 66.7055 9.36739C67.206 8.49891 67.9714 7.68931 69.0018 6.93859C70.047 6.17315 71.1951 5.79043 72.4463 5.79043C73.83 5.79043 74.9046 6.03331 75.67 6.51907C76.4502 6.99011 77.0169 7.79971 77.3702 8.94787C77.7234 10.096 77.9001 11.7152 77.9001 13.8055V25H70.7241V13.1651C70.7241 12.5175 70.5695 12.0096 70.2604 11.6416C69.9513 11.2736 69.4802 11.0896 68.8473 11.0896C68.4204 11.0896 67.839 11.4429 67.103 12.1495C67.1471 12.856 67.1692 13.6215 67.1692 14.4458V25H59.8828V13.1651C59.927 11.7815 59.3382 11.0896 58.1164 11.0896C58.0281 11.0896 57.9398 11.097 57.8515 11.1117C57.7779 11.1264 57.7043 11.1411 57.6307 11.1559C57.5718 11.1706 57.4982 11.2 57.4099 11.2442C57.3363 11.2736 57.27 11.3031 57.2111 11.3325C57.1523 11.3472 57.086 11.384 57.0124 11.4429C56.9388 11.4871 56.8799 11.5239 56.8358 11.5533C56.7916 11.5827 56.7254 11.6343 56.6371 11.7079C56.5635 11.7667 56.5046 11.8109 56.4604 11.8403C56.431 11.8698 56.3721 11.9213 56.2838 11.9949C56.2102 12.0538 56.1587 12.0979 56.1292 12.1274V25ZM90.6081 13.5847C90.6081 11.7152 90.5124 10.3904 90.3211 9.61027C90.1297 8.83011 89.7764 8.44003 89.2612 8.44003C88.8196 8.44003 88.459 8.52099 88.1793 8.68291C87.8996 8.83011 87.6936 9.07299 87.5611 9.41155C87.4286 9.73539 87.3403 10.0739 87.2961 10.4272C87.2667 10.7658 87.252 11.2 87.252 11.7299V13.5847H90.6081ZM88.8417 25.4637C87.1931 25.4637 85.7579 25.2134 84.5361 24.713C83.3291 24.2125 82.3723 23.5133 81.6657 22.6154C80.9739 21.7174 80.4661 20.7091 80.1422 19.5904C79.8184 18.457 79.6565 17.1984 79.6565 15.8147C79.6565 12.5175 80.4955 10.0224 82.1736 8.32963C83.8517 6.63683 86.1995 5.79043 89.2171 5.79043C92.1169 5.79043 94.1924 6.47491 95.4436 7.84387C96.6948 9.19811 97.3204 11.384 97.3204 14.4016V16.8525H87.2299V17.272C87.2299 18.1405 87.3182 18.8544 87.4949 19.4138C87.6862 19.9731 87.9585 20.3853 88.3118 20.6502C88.6651 20.9152 89.0257 21.0918 89.3937 21.1802C89.7617 21.2685 90.2107 21.3126 90.7406 21.3126C91.2558 21.3126 91.8078 21.2464 92.3966 21.1139C93.0001 20.9814 93.6036 20.7754 94.2072 20.4957C94.8254 20.216 95.3406 19.8848 95.7528 19.5021L97.0555 21.7322C96.5108 22.6154 95.7086 23.3587 94.6488 23.9622C93.6036 24.551 92.5953 24.9485 91.6238 25.1546C90.6523 25.3606 89.7249 25.4637 88.8417 25.4637Z" fill="#8B5CF6"/>
</g>
<rect width="2.75999" height="5.51999" transform="matrix(-0.974257 -0.225441 -0.225441 0.974257 28.4762 53.6221)" fill="#8B5CF6"/>
<rect x="74.2227" y="53.6221" width="2.75999" height="5.51999" transform="rotate(-13.0288 74.2227 53.6221)" fill="#8B5CF6"/>
<path d="M95.195 55.4147H86.8398V25.9107H103.5V32.3301L95.195 31.8266V38.674H102.011V44.9171L95.195 44.4137V55.4147Z" fill="white"/>
<path d="M68.6475 51.4399V25.9107H77.0027V48.6681H84.525V51.4399H68.6475Z" fill="white"/>
<path d="M66.3553 51.4399H48.4584V25.9107H65.9767L65.4718 31.8518L56.8137 31.6001V37.2894H63.6291V43.1801L56.8137 42.6767V49.373L66.3553 49.1212V51.4399Z" fill="white"/>
<path d="M30.2647 51.4399H21.9095V25.9107H30.2647V37.5915H36.752V25.9107H45.1073V51.4399H36.752V43.3815H30.2647V51.4399Z" fill="white"/>
<path d="M9.64262 55.9434C8.34684 55.9434 7.1352 55.8259 6.00771 55.5909C4.89704 55.3728 3.96307 55.0791 3.20579 54.7099C2.44852 54.3406 1.82587 53.9882 1.33785 53.6525C0.866658 53.3169 0.471193 52.9812 0.151455 52.6456L0.782516 46.5283C1.47248 47.4513 2.39803 48.2569 3.55919 48.945C4.72034 49.6163 5.97405 49.9519 7.32031 49.9519C8.66658 49.9519 9.63421 49.8093 10.2232 49.524C10.829 49.2387 11.1319 48.7184 11.1319 47.9632C11.1319 47.1576 10.7869 46.4695 10.097 45.8989C9.42385 45.3283 8.25428 44.6402 6.58828 43.8346C5.98246 43.5326 5.4692 43.264 5.04849 43.0291C4.62778 42.7773 4.06404 42.3745 3.35725 41.8207C2.66729 41.2501 2.10354 40.6627 1.666 40.0585C1.22847 39.4376 0.841415 38.6488 0.504849 37.6922C0.168283 36.7188 0 35.6782 0 34.5706C0 28.5792 3.3909 25.5834 10.1727 25.5834C11.2497 25.5834 12.2594 25.7009 13.2018 25.9359C14.161 26.154 14.9099 26.3974 15.4484 26.6659C15.9869 26.9344 16.4749 27.2533 16.9124 27.6225C17.3668 27.975 17.6529 28.2267 17.7707 28.3778C17.8885 28.512 17.9726 28.6211 18.0231 28.705L16.761 33.5636C16.1047 32.7916 15.2801 32.221 14.2872 31.8518C13.3112 31.4658 12.3772 31.2728 11.4853 31.2728C9.3313 31.2728 8.25429 31.9441 8.25429 33.2867C8.25429 33.6391 8.3216 33.958 8.45623 34.2433C8.59085 34.5286 8.80962 34.7888 9.11253 35.0237C9.41544 35.2587 9.69311 35.4601 9.94553 35.6279C10.2148 35.7957 10.5766 36.0055 11.031 36.2572C11.5021 36.4922 11.8555 36.6852 12.0911 36.8363C14.5481 37.8768 16.3487 39.1103 17.493 40.5368C18.6542 41.9634 19.2348 43.7004 19.2348 45.7479C19.2348 49.0709 18.4102 51.605 16.761 53.3505C15.1286 55.0791 12.7559 55.9434 9.64262 55.9434Z" fill="white"/>
<rect x="19.0228" y="52.9999" width="66.2399" height="1.38" fill="#8B5CF6"/>
<path d="M18.2329 32.7942C17.0848 32.7942 15.7894 32.5293 14.3469 31.9993C12.9043 31.4841 11.9696 30.991 11.5427 30.52L12.9338 27.495C13.3018 27.7747 13.8979 28.0323 14.7222 28.2678C15.5465 28.5034 16.2531 28.6211 16.8419 28.6211C17.4307 28.6211 17.9385 28.5402 18.3654 28.3782C18.807 28.231 19.1456 28.0397 19.3811 27.8042C19.6166 27.5834 19.808 27.3037 19.9552 26.9651C20.1024 26.6413 20.1907 26.3469 20.2201 26.0819C20.2643 25.817 20.2937 25.5226 20.3085 25.1987V23.3219C19.0573 24.6173 17.5337 25.265 15.7379 25.265C13.3091 25.265 11.528 24.4333 10.3946 22.7699C9.26112 21.1066 8.6944 18.7955 8.6944 15.8368C8.6944 14.4531 8.84896 13.1799 9.15808 12.017C9.4672 10.8394 9.91616 9.80899 10.505 8.92579C11.1085 8.02787 11.8886 7.32867 12.8454 6.82819C13.8022 6.31299 14.8841 6.05539 16.0912 6.05539C17.9165 6.05539 19.4989 6.46019 20.8384 7.26979L21.2137 6.23203H24.592L28.743 6.43075V8.50627L27.4182 9.43363V24.183C27.4182 29.9238 24.3565 32.7942 18.2329 32.7942ZM18.9395 21.2464C19.3811 21.2464 19.8374 21.1213 20.3085 20.871V9.23491C19.9552 9.16131 19.6313 9.12451 19.3369 9.12451C17.3792 9.13923 16.3929 10.648 16.3782 13.6509V17.0733C16.3782 18.0154 16.5033 18.825 16.7536 19.5021C17.1952 20.665 17.9238 21.2464 18.9395 21.2464ZM40.0354 23.0349L39.8146 23.2778C39.6674 23.4544 39.4392 23.6605 39.1301 23.896C38.8357 24.1315 38.4898 24.367 38.0923 24.6026C37.7096 24.8381 37.2386 25.0368 36.6792 25.1987C36.1198 25.3754 35.5458 25.4637 34.957 25.4637C30.9826 25.4637 28.9954 23.4986 28.9954 19.5683C28.9954 18.8029 29.1352 18.1037 29.4149 17.4707C29.6946 16.8231 30.0552 16.2784 30.4968 15.8368C30.9384 15.3952 31.4683 15.0051 32.0866 14.6666C32.7048 14.3133 33.323 14.041 33.9413 13.8496C34.5742 13.6435 35.2366 13.4743 35.9285 13.3418C36.6203 13.2093 37.2386 13.121 37.7832 13.0768C38.3278 13.0327 38.8504 13.0106 39.3509 13.0106V12.6131C39.3509 11.7152 39.108 11.0823 38.6222 10.7143C38.1512 10.3463 37.3858 10.1623 36.3259 10.1623C35.4133 10.1623 34.4638 10.2727 33.4776 10.4935C32.4914 10.6995 31.7186 10.9498 31.1592 11.2442L29.7461 8.24131C30.747 7.59363 32.0498 7.02691 33.6542 6.54115C35.2587 6.04067 36.8926 5.79043 38.556 5.79043C40.028 5.79043 41.2424 5.93763 42.1992 6.23203C43.156 6.51171 43.9288 6.99747 44.5176 7.68931C45.1211 8.36643 45.548 9.23491 45.7982 10.2947C46.0485 11.3399 46.1736 12.672 46.1736 14.2912V23.2778L46.7918 25H40.7419L40.0354 23.0349ZM38.291 21.5776C38.4824 21.5776 38.659 21.5408 38.821 21.4672C38.9976 21.3789 39.1301 21.2979 39.2184 21.2243C39.3067 21.136 39.3509 21.0918 39.3509 21.0918V15.7927C38.453 15.7927 37.739 16.0429 37.2091 16.5434C36.6792 17.0291 36.4142 17.7872 36.4142 18.8176C36.4142 20.6576 37.0398 21.5776 38.291 21.5776ZM56.1292 25H48.9974V10.7143L47.6726 9.89731V7.53475L52.4198 6.23203H56.1734V9.08035C56.247 8.97731 56.35 8.84483 56.4825 8.68291C56.6297 8.50627 56.8947 8.23395 57.2774 7.86595C57.6601 7.49795 58.0502 7.17411 58.4476 6.89443C58.8598 6.61475 59.3529 6.36451 59.927 6.14371C60.5158 5.90819 61.0972 5.79043 61.6713 5.79043C63.1433 5.79043 64.2694 6.07011 65.0495 6.62947C65.8297 7.18883 66.3817 8.10147 66.7055 9.36739C67.206 8.49891 67.9714 7.68931 69.0018 6.93859C70.047 6.17315 71.1951 5.79043 72.4463 5.79043C73.83 5.79043 74.9046 6.03331 75.67 6.51907C76.4502 6.99011 77.0169 7.79971 77.3702 8.94787C77.7234 10.096 77.9001 11.7152 77.9001 13.8055V25H70.7241V13.1651C70.7241 12.5175 70.5695 12.0096 70.2604 11.6416C69.9513 11.2736 69.4802 11.0896 68.8473 11.0896C68.4204 11.0896 67.839 11.4429 67.103 12.1495C67.1471 12.856 67.1692 13.6215 67.1692 14.4458V25H59.8828V13.1651C59.927 11.7815 59.3382 11.0896 58.1164 11.0896C58.0281 11.0896 57.9398 11.097 57.8515 11.1117C57.7779 11.1264 57.7043 11.1411 57.6307 11.1559C57.5718 11.1706 57.4982 11.2 57.4099 11.2442C57.3363 11.2736 57.27 11.3031 57.2111 11.3325C57.1523 11.3472 57.086 11.384 57.0124 11.4429C56.9388 11.4871 56.8799 11.5239 56.8358 11.5533C56.7916 11.5827 56.7254 11.6343 56.6371 11.7079C56.5635 11.7667 56.5046 11.8109 56.4604 11.8403C56.431 11.8698 56.3721 11.9213 56.2838 11.9949C56.2102 12.0538 56.1587 12.0979 56.1292 12.1274V25ZM90.6081 13.5847C90.6081 11.7152 90.5124 10.3904 90.3211 9.61027C90.1297 8.83011 89.7764 8.44003 89.2612 8.44003C88.8196 8.44003 88.459 8.52099 88.1793 8.68291C87.8996 8.83011 87.6936 9.07299 87.5611 9.41155C87.4286 9.73539 87.3403 10.0739 87.2961 10.4272C87.2667 10.7658 87.252 11.2 87.252 11.7299V13.5847H90.6081ZM88.8417 25.4637C87.1931 25.4637 85.7579 25.2134 84.5361 24.713C83.3291 24.2125 82.3723 23.5133 81.6657 22.6154C80.9739 21.7174 80.4661 20.7091 80.1422 19.5904C79.8184 18.457 79.6565 17.1984 79.6565 15.8147C79.6565 12.5175 80.4955 10.0224 82.1736 8.32963C83.8517 6.63683 86.1995 5.79043 89.2171 5.79043C92.1169 5.79043 94.1924 6.47491 95.4436 7.84387C96.6948 9.19811 97.3204 11.384 97.3204 14.4016V16.8525H87.2299V17.272C87.2299 18.1405 87.3182 18.8544 87.4949 19.4138C87.6862 19.9731 87.9585 20.3853 88.3118 20.6502C88.6651 20.9152 89.0257 21.0918 89.3937 21.1802C89.7617 21.2685 90.2107 21.3126 90.7406 21.3126C91.2558 21.3126 91.8078 21.2464 92.3966 21.1139C93.0001 20.9814 93.6036 20.7754 94.2072 20.4957C94.8254 20.216 95.3406 19.8848 95.7528 19.5021L97.0555 21.7322C96.5108 22.6154 95.7086 23.3587 94.6488 23.9622C93.6036 24.551 92.5953 24.9485 91.6238 25.1546C90.6523 25.3606 89.7249 25.4637 88.8417 25.4637Z" fill="#8B5CF6"/>
<defs>
<filter id="filter0_f_1_2" x="3.17447" y="0.270415" width="99.666" height="38.0438" filterUnits="userSpaceOnUse" color-interpolation-filters="sRGB">
<feFlood flood-opacity="0" result="BackgroundImageFix"/>
<feBlend mode="normal" in="SourceGraphic" in2="BackgroundImageFix" result="shape"/>
<feGaussianBlur stdDeviation="2.75999" result="effect1_foregroundBlur_1_2"/>
</filter>
</defs>
</svg>
